# Blender3D v249 OBJ File: 
# www.blender3d.org
v 1.000000 0.889676 -1.099307
v 1.000000 -1.099307 -0.889676
v -1.000000 -1.099307 -0.889676
v -1.000000 0.889676 -1.099307
v 0.029774 0.134425 0.991371
v 0.029774 0.075204 0.997613
v -0.029775 0.075204 0.997613
v -0.029775 0.134425 0.991371
vn -0.000000 0.940513 0.339757
vn 0.000000 0.940513 0.339758
vn -0.899721 0.045749 0.434062
vn -0.899721 0.045748 0.434062
vn 0.000000 -0.849017 0.528366
vn 0.899721 0.045748 0.434062
vn 0.899721 0.045749 0.434062
vn -0.000000 0.104816 0.994492
vn 0.000000 -0.104815 -0.994492
usemtl Material.002
s off
f 5//1 1//1 4//1
f 5//2 4//2 8//2
f 3//3 7//3 8//3
f 3//4 8//4 4//4
f 2//5 6//5 7//5
f 2//5 7//5 3//5
f 1//6 5//6 2//6
f 5//7 6//7 2//7
f 5//8 8//8 7//8
f 5//8 7//8 6//8
f 1//9 2//9 3//9
f 1//9 3//9 4//9
