# Blender3D v249 OBJ File: 
# www.blender3d.org
o Cube
v 1.000000 -1.000000 -1.000000
v 1.000000 -1.000000 1.000000
v -1.000000 -1.000000 1.000000
v -1.000000 -1.000000 -1.000000
v 0.029774 1.000000 -0.029774
v 0.029774 1.000000 0.029775
v -0.029775 1.000000 0.029775
v -0.029775 1.000000 -0.029774
vn 0.000000 0.436466 -0.899721
vn 0.000001 0.436466 -0.899721
vn -0.899721 0.436466 0.000000
vn -0.000000 0.436466 0.899721
vn 0.899721 0.436466 0.000000
vn -0.000000 1.000000 0.000000
vn -0.000000 -1.000000 0.000000
usemtl Material
s off
f 5//1 1//1 4//1
f 5//2 4//2 8//2
f 3//3 7//3 8//3
f 3//3 8//3 4//3
f 2//4 6//4 7//4
f 2//4 7//4 3//4
f 1//5 5//5 2//5
f 5//5 6//5 2//5
f 5//6 8//6 7//6
f 5//6 7//6 6//6
f 1//7 2//7 3//7
f 1//7 3//7 4//7
